# Blender 4.1.1
# www.blender.org
mtllib brite-lite.case.mtl
o Cube
v 1.521660 2.352090 -4.025480
v 1.521660 2.522090 -3.855480
v 1.691660 2.352090 -3.855480
v 1.521660 -2.522090 -3.855480
v 1.521660 -2.352090 -4.025480
v 1.691660 -2.352090 -3.855480
v 1.691660 2.352090 3.855480
v 1.521660 2.522090 3.855480
v 1.521660 2.352090 4.025480
v 1.691660 -2.352090 3.855480
v 1.521660 -2.352090 4.025480
v 1.521660 -2.522090 3.855480
v 0.478340 2.352090 -4.025480
v 0.308340 2.352090 -3.855480
v 0.478340 2.522090 -3.855480
v 0.308340 -2.352090 -3.855480
v 0.478340 -2.352090 -4.025480
v 0.478340 -2.522090 -3.855480
v 0.308340 2.352090 3.855480
v 0.478340 2.352090 4.025480
v 0.478340 2.522090 3.855480
v 0.478340 -2.522090 3.855480
v 0.478340 -2.352090 4.025480
v 0.308340 -2.352090 3.855480
vn -0.0000 -1.0000 -0.0000
vn -1.0000 -0.0000 -0.0000
vn -0.0000 -0.0000 1.0000
vn -0.0000 1.0000 -0.0000
vn 1.0000 -0.0000 -0.0000
vn -0.0000 -0.0000 -1.0000
vn -0.0000 -0.0002 -1.0000
vn -0.0000 -0.0002 1.0000
vn -0.0000 0.0002 1.0000
vn -0.0000 0.0002 -1.0000
vt 0.155723 0.505279
vt 0.344277 0.505279
vt 0.344277 0.744721
vt 0.155723 0.744721
vt 0.383426 0.005279
vt 0.616574 0.005279
vt 0.616574 0.244721
vt 0.383426 0.244721
vt 0.383426 0.780723
vt 0.616574 0.780723
vt 0.616574 0.969277
vt 0.383426 0.969277
vt 0.655723 0.505279
vt 0.844277 0.505279
vt 0.844277 0.744721
vt 0.655723 0.744721
vt 0.383426 0.505279
vt 0.616574 0.505279
vt 0.616574 0.744721
vt 0.383426 0.744721
vt 0.616574 0.469277
vt 0.625000 0.469277
vt 0.616574 0.500000
vt 0.344277 0.500000
vt 0.375000 0.505279
vt 0.616574 0.750000
vt 0.625000 0.780723
vt 0.375000 0.744721
vt 0.344277 0.750000
vt 0.616574 0.250000
vt 0.625000 0.244721
vt 0.125000 0.505279
vt 0.155723 0.500000
vt 0.616574 0.000000
vt 0.625000 0.005279
vt 0.155723 0.750000
vt 0.125000 0.744721
vt 0.383426 0.469277
vt 0.383426 0.000000
vt 0.616574 0.280723
vt 0.383426 0.280723
vt 0.625000 0.969277
vt 0.344277 0.750000
vt 0.625000 0.244721
vt 0.625000 0.280723
s 0
usemtl Material
f 18/1/1 4/2/1 12/3/1 22/4/1
f 24/5/2 19/6/2 14/7/2 16/8/2
f 11/9/3 9/10/3 20/11/3 23/12/3
f 2/13/4 15/14/4 21/15/4 8/16/4
f 6/17/5 3/18/5 7/19/5 10/20/5
f 1/21/6 2/22/4 3/23/5
f 4/2/1 5/24/6 6/25/5
f 7/26/5 8/27/4 9/10/3
f 10/28/5 11/29/3 12/3/1
f 13/30/6 14/7/2 15/31/4
f 16/32/2 17/33/6 18/1/1
f 19/6/2 20/34/3 21/35/4
f 22/4/1 23/36/3 24/37/2
f 18/1/1 22/4/1 24/37/2 16/32/2
f 4/2/1 18/1/1 17/33/6 5/24/6
f 3/18/5 6/17/5 5/38/6 1/21/7
f 23/39/3 20/34/8 19/6/2 24/5/2
f 9/10/3 11/9/9 10/20/5 7/19/5
f 13/40/6 17/41/10 16/8/2 14/7/2
f 8/27/4 21/42/4 20/11/3 9/10/3
f 2/13/4 8/16/4 7/19/5 3/18/5
f 22/4/1 12/3/1 11/43/3 23/36/3
f 21/35/4 15/44/4 14/7/2 19/6/2
f 15/45/4 2/22/4 1/21/6 13/40/6
f 12/3/1 4/2/1 6/17/5 10/20/5
f 17/41/6 13/40/6 1/21/6 5/38/6
